<svg width="966" height="323" viewBox="0 0 966 323" fill="none" xmlns="http://www.w3.org/2000/svg">
<g clip-path="url(#clip0_5616_141)">
<path d="M309.673 253.592L309.366 255.548C221.462 265.792 146.157 242.995 100.29 205.386C80.6837 189.309 66.1297 170.49 58.0518 150.444C49.9829 130.421 48.3996 109.181 54.7245 88.2385C55.4483 85.841 56.2791 83.4489 57.2123 81.0616C73.3179 56.2151 101.563 31.3996 144.805 8.05404L145.78 7.63147C103.477 31.3221 79.8314 59.5193 71.145 88.2831C64.8329 109.183 66.4158 130.386 74.4722 150.38C82.5199 170.351 97.052 189.125 116.647 205.192C152.96 234.923 205.36 255.156 264.034 256.002C279.95 256.231 294.492 255.244 309.673 253.592Z" fill="#009BDD"/>
<path d="M304.258 288.057L304.035 289.473C218.352 296.148 132.771 271.012 79.7838 229.954C57.4508 212.649 40.477 192.513 31.3464 170.796C22.217 149.081 20.9236 125.776 29.9464 102.131C31.93 96.9321 34.4167 91.7161 37.4245 86.4979C57.2645 58.2413 91.9547 31.2317 144.806 8.05322C89.2927 38.0242 58.4925 70.4153 46.3669 102.189C37.361 125.79 38.6529 149.054 47.7672 170.732C56.8801 192.408 73.8081 212.495 96.0753 229.749C137.168 261.59 194.83 283.787 253.18 288.145C269.961 289.397 287.516 289.338 304.258 288.057V288.057Z" fill="#FFEE00"/>
<path d="M299.06 321.132C204.059 328.645 116.704 300.892 61.3873 256.86C37.7991 238.084 19.8838 216.305 9.65331 193.094C-0.565057 169.91 -3.08762 145.305 4.09529 120.849C14.2539 86.2601 43.8303 51.9709 98.5049 22.4119C134.94 2.71444 164.939 -0.245053 164.269 0.0153666C77.4355 33.7864 33.3799 77.0944 20.5161 120.893C13.3461 145.305 15.8682 169.874 26.0741 193.031C36.2683 216.159 54.1617 237.893 77.7439 256.666C121.431 291.439 184.025 315.914 251.944 319.488C267.56 320.309 283.396 320.426 299.41 318.909L299.06 321.132H299.06Z" fill="#009632"/>
<path d="M343.313 244.635H376.002C383.267 244.635 389.271 243.301 394.015 240.632C398.759 237.964 402.354 234.443 404.8 230.07C407.247 225.696 408.469 221.063 408.469 216.171C408.469 212.02 407.543 208.24 405.689 204.83C403.837 201.42 401.131 198.677 397.573 196.602C394.015 194.526 389.493 193.488 384.008 193.488H351.319L343.313 244.635L343.313 244.635ZM299.06 321.133L312.055 238.438C314.249 237.651 316.352 236.714 318.364 235.626C325.628 231.697 331.336 226.323 335.487 219.504C339.638 212.684 341.713 204.901 341.713 196.155C341.713 187.853 339.415 180.477 334.82 174.028C332.376 170.598 329.597 167.746 326.482 165.469H389.568C400.983 165.469 410.471 167.693 418.032 172.14C425.592 176.588 431.263 182.444 435.044 189.708C438.824 196.973 440.714 204.83 440.714 213.28C440.714 220.396 439.38 227.401 436.711 234.295C434.042 241.188 430.151 247.452 425.036 253.085C419.922 258.719 413.51 263.241 405.8 266.65L414.918 288.666C415.511 289.852 416.364 290.891 417.475 291.779C418.586 292.667 419.885 293.113 421.367 293.113H433.314C436.226 306.551 448.423 318.414 463.717 321.133H412.028C404.171 321.133 398.315 319.576 394.46 316.463C390.606 313.35 387.641 309.273 385.565 304.232L372.889 272.655C372.148 272.655 371.37 272.655 370.554 272.655C369.739 272.655 368.96 272.655 368.219 272.655H338.866L331.305 321.133H299.06V321.133ZM245.907 149.011H292.161C295.719 149.011 299.091 148.158 302.279 146.453C305.467 144.748 308.024 142.45 309.951 139.56C311.879 136.669 312.842 133.37 312.842 129.664C312.842 126.847 312.175 124.253 310.841 121.881C309.506 119.509 307.69 117.582 305.393 116.099C303.095 114.616 300.315 113.875 297.053 113.875H251.466L245.907 149.011H245.907ZM235.899 213.5H286.379C290.233 213.5 293.718 212.573 296.83 210.72C299.944 208.867 302.427 206.31 304.28 203.048C306.133 199.787 307.06 196.229 307.06 192.374C307.06 189.409 306.356 186.667 304.947 184.146C303.539 181.626 301.537 179.588 298.943 178.031C296.349 176.474 293.273 175.696 289.715 175.696H241.904L235.899 213.5ZM199.652 241.519L211.664 165.081C218.283 162.212 224.09 158.39 229.084 153.613C234.198 148.721 238.164 143.124 240.981 136.823C243.798 130.523 245.206 123.963 245.206 117.143C245.206 108.545 243.353 101.132 239.647 94.9051C237.585 91.441 235.064 88.4252 232.084 85.8558H303.725C312.175 85.8558 319.254 87.6715 324.962 91.3034C330.67 94.9361 335.006 99.6055 337.971 105.313C340.937 111.02 342.419 117.062 342.419 123.437C342.419 128.477 341.418 133.407 339.417 138.224C337.415 143.043 334.339 147.416 330.188 151.345C326.037 155.274 320.7 158.424 314.177 160.796C321.145 163.168 326.927 167.579 331.523 174.028C336.118 180.476 338.416 187.852 338.416 196.154C338.416 204.901 336.341 212.684 332.19 219.504C328.038 226.323 322.331 231.697 315.067 235.626C307.803 239.555 299.352 241.519 289.716 241.519H199.653L199.652 241.519ZM116.487 169.624L121.38 141.605H185.869C191.057 141.605 195.394 140.715 198.878 138.936C202.361 137.157 204.993 134.711 206.772 131.598C208.551 128.485 209.44 124.927 209.44 120.924C209.44 117.662 208.699 114.882 207.216 112.585C205.734 110.287 203.659 108.507 200.991 107.248C198.322 105.987 195.135 105.357 191.428 105.357H172.081C163.335 105.357 155.7 103.652 149.177 100.243C142.654 96.8331 137.576 91.9781 133.944 85.6774C130.312 79.377 128.496 71.9276 128.496 63.3285C128.496 53.5436 130.72 44.9452 135.167 37.5325C139.615 30.1206 145.842 24.3384 153.847 20.1876C161.852 16.036 171.192 13.9613 181.867 13.9613H249.691L244.799 41.9805H181.422C177.27 41.9805 173.675 42.7217 170.636 44.2044C167.597 45.6872 165.225 47.7256 163.52 50.3196C161.815 52.9143 160.963 55.9158 160.963 59.3258C160.963 62.884 161.704 65.8862 163.187 68.332C164.669 70.7782 166.634 72.5944 169.08 73.7801C171.526 74.9661 174.157 75.5591 176.974 75.5591H197.433C206.328 75.5591 214.111 77.2275 220.782 80.5627C227.453 83.8983 232.642 88.6796 236.348 94.9054C240.055 101.132 241.908 108.545 241.908 117.144C241.908 123.963 240.499 130.523 237.682 136.824C234.866 143.125 230.9 148.721 225.785 153.613C220.67 158.505 214.703 162.397 207.884 165.288C201.064 168.179 193.578 169.624 185.424 169.624H116.487L116.487 169.624ZM919.233 309.839C924.838 309.839 929.894 308.355 934.399 305.388C938.906 302.42 942.56 298.409 945.362 293.353C948.164 288.298 949.676 282.693 949.895 276.538C950.005 271.044 948.988 266.125 946.845 261.784C944.702 257.443 941.653 254.009 937.696 251.481C933.74 248.954 929.014 247.69 923.519 247.69C918.024 247.69 912.969 249.201 908.353 252.223C903.738 255.245 900.056 259.366 897.308 264.587C894.561 269.807 893.187 275.659 893.187 282.143C893.187 287.638 894.286 292.474 896.484 296.65C898.682 300.826 901.731 304.068 905.633 306.376C909.535 308.684 914.068 309.838 919.233 309.838L919.233 309.839ZM914.123 322.862C907.09 322.862 900.825 321.158 895.33 317.752C889.835 314.345 885.521 309.619 882.389 303.575C879.257 297.53 877.691 290.716 877.691 283.133C877.691 276.1 878.845 269.615 881.153 263.681C883.461 257.746 886.703 252.608 890.88 248.268C895.056 243.926 899.974 240.574 905.634 238.212C911.293 235.849 917.42 234.667 924.014 234.667C929.289 234.667 934.4 235.519 939.345 237.223C944.291 238.926 948.742 241.509 952.698 244.971C956.655 248.432 959.759 252.718 962.013 257.829C964.266 262.939 965.337 268.956 965.227 275.88C965.227 277.528 965.144 279.039 964.98 280.413C964.815 281.787 964.622 283.133 964.403 284.452L958.468 320.719H943.137L945.775 305.388H945.445C941.708 310.773 937.12 315.032 931.68 318.164C926.241 321.297 920.388 322.862 914.124 322.862L914.123 322.862ZM855.937 320.719C848.904 320.719 842.393 319.235 836.403 316.267C830.413 313.3 825.633 309.014 822.061 303.409C818.489 297.804 816.703 291.155 816.703 283.462C816.703 274.011 818.819 265.768 823.05 258.735C827.282 251.701 832.996 246.261 840.194 242.414C847.393 238.568 855.608 236.645 864.839 236.645H879.346L877.203 249.668H863.85C857.366 249.668 851.733 251.179 846.953 254.202C842.172 257.224 838.518 261.153 835.99 265.989C833.462 270.824 832.198 276.154 832.198 281.979C832.198 287.693 833.407 292.474 835.825 296.32C838.243 300.167 841.375 303.025 845.222 304.893C849.068 306.761 853.135 307.695 857.421 307.695H868.136L865.993 320.719H855.937H855.937ZM806.819 223.292C803.962 223.292 801.599 222.331 799.73 220.408C797.862 218.484 796.928 216.203 796.928 213.566C796.928 211.588 797.422 209.802 798.412 208.209C799.401 206.615 800.747 205.324 802.451 204.334C804.154 203.345 805.995 202.851 807.973 202.851C810.721 202.851 813.028 203.758 814.897 205.571C816.765 207.384 817.699 209.665 817.699 212.412C817.699 214.39 817.177 216.204 816.133 217.852C815.089 219.5 813.77 220.819 812.176 221.809C810.583 222.798 808.797 223.292 806.819 223.292ZM782.916 320.719L796.104 236.645H811.435L798.247 320.719H782.916ZM724.566 249.668L726.544 236.645H741.183L744.513 215.544H759.678L756.346 236.645H785.065L783.087 249.668H754.29L747.314 293.848C746.984 295.717 746.82 297.31 746.82 298.629C746.82 301.266 747.562 303.437 749.046 305.14C750.529 306.844 752.919 307.695 756.216 307.695H773.526L771.547 320.719H751.765C744.952 320.719 739.841 319.015 736.435 315.609C733.027 312.202 731.325 307.531 731.325 301.597C731.325 299.838 731.489 297.97 731.819 295.992L739.128 249.669H724.566V249.668ZM674.623 309.674C680.997 309.674 686.492 308.053 691.108 304.811C695.724 301.569 699.268 297.392 701.741 292.282C704.214 287.172 705.45 281.704 705.45 275.879C705.45 270.494 704.324 265.686 702.071 261.455C699.817 257.224 696.686 253.872 692.674 251.399C688.662 248.926 684.02 247.69 678.745 247.69C672.81 247.69 667.507 249.256 662.837 252.388C658.166 255.52 654.512 259.641 651.874 264.752C649.236 269.862 647.917 275.44 647.917 281.484C647.917 286.759 649.044 291.54 651.297 295.826C653.55 300.112 656.709 303.492 660.776 305.964C664.843 308.437 669.458 309.674 674.623 309.674ZM673.964 322.697C666.161 322.697 659.127 320.966 652.862 317.504C646.598 314.042 641.625 309.262 637.944 303.162C634.262 297.063 632.422 290.057 632.422 282.144C632.422 275.55 633.686 269.368 636.213 263.598C638.741 257.829 642.175 252.773 646.517 248.432C650.857 244.091 655.885 240.712 661.6 238.294C667.315 235.876 673.414 234.667 679.899 234.667C687.591 234.667 694.543 236.425 700.752 239.942C706.961 243.459 711.88 248.267 715.506 254.366C719.133 260.466 720.946 267.527 720.946 275.55C720.946 281.924 719.737 287.969 717.319 293.683C714.901 299.398 711.577 304.454 707.346 308.849C703.114 313.246 698.142 316.652 692.427 319.07C686.713 321.488 680.557 322.697 673.964 322.697ZM578.688 309.674C584.292 309.674 589.348 308.217 593.853 305.305C598.36 302.393 602.014 298.436 604.816 293.435C607.619 288.435 609.13 282.858 609.349 276.703C609.46 270.769 608.415 265.658 606.217 261.372C604.019 257.086 600.915 253.762 596.903 251.399C592.891 249.036 588.303 247.854 583.138 247.854C577.533 247.854 572.395 249.338 567.725 252.306C563.055 255.273 559.317 259.312 556.515 264.422C553.712 269.532 552.311 275.275 552.311 281.649C552.311 287.254 553.465 292.172 555.773 296.403C558.081 300.634 561.24 303.904 565.252 306.212C569.263 308.519 573.742 309.674 578.688 309.674ZM578.523 322.862C569.95 322.862 562.587 321.103 556.433 317.587C550.278 314.07 545.524 309.262 542.173 303.162C538.821 297.063 537.146 290.057 537.146 282.144C537.146 280.825 537.2 279.451 537.31 278.022C537.42 276.594 537.585 275.22 537.805 273.901L549.509 200.378H564.84L556.763 250.327H557.093C560.61 245.602 565.033 241.865 570.363 239.117C575.693 236.37 581.545 234.996 587.919 234.996C594.953 234.996 601.272 236.645 606.877 239.941C612.482 243.238 616.878 247.882 620.065 253.871C623.252 259.861 624.846 266.867 624.846 274.89C624.846 281.813 623.72 288.215 621.467 294.095C619.213 299.974 616.026 305.057 611.905 309.343C607.784 313.63 602.866 316.954 597.151 319.316C591.436 321.68 585.227 322.861 578.523 322.861L578.523 322.862ZM478.63 309.674C485.004 309.674 490.499 308.053 495.115 304.811C499.731 301.569 503.275 297.392 505.748 292.282C508.221 287.172 509.458 281.704 509.458 275.879C509.458 270.494 508.331 265.686 506.078 261.455C503.824 257.224 500.693 253.872 496.681 251.399C492.67 248.926 488.027 247.69 482.752 247.69C476.817 247.69 471.514 249.256 466.844 252.388C462.173 255.52 458.518 259.641 455.881 264.752C453.243 269.862 451.924 275.44 451.924 281.484C451.924 286.759 453.051 291.54 455.304 295.826C457.557 300.112 460.716 303.492 464.783 305.964C468.849 308.437 473.465 309.674 478.63 309.674ZM477.971 322.697C470.168 322.697 463.134 320.966 456.869 317.504C450.606 314.042 445.632 309.262 441.951 303.162C438.269 297.063 436.428 290.057 436.428 282.144C436.428 275.55 437.693 269.368 440.22 263.598C442.748 257.829 446.182 252.773 450.524 248.432C454.865 244.091 459.892 240.712 465.607 238.294C471.322 235.876 477.421 234.667 483.905 234.667C491.599 234.667 498.55 236.425 504.759 239.942C510.968 243.459 515.887 248.267 519.513 254.366C523.14 260.466 524.953 267.527 524.953 275.55C524.953 281.924 523.744 287.969 521.327 293.683C518.909 299.398 515.584 304.454 511.353 308.849C507.121 313.246 502.149 316.652 496.434 319.07C490.719 321.488 484.565 322.697 477.971 322.697Z" fill="#96989A"/>
</g>
<defs>
<clipPath id="clip0_5616_141">
<rect width="965.235" height="322.862" fill="white"/>
</clipPath>
</defs>
</svg>
