<svg width="622" height="686" viewBox="0 0 622 686" fill="none" xmlns="http://www.w3.org/2000/svg">
<g clip-path="url(#clip0_5633_130)">
<path d="M436.361 357.336L435.928 360.092C312.062 374.528 205.95 342.405 141.32 289.409C113.692 266.754 93.1835 240.236 81.8007 211.991C70.4311 183.776 68.1999 153.846 77.1126 124.336C78.1324 120.959 79.3034 117.587 80.618 114.224C103.312 79.2121 143.113 44.2443 204.045 11.3486L205.418 10.7533C145.81 44.1359 112.491 83.8688 100.251 124.4C91.3567 153.85 93.5864 183.728 104.939 211.9C116.279 240.041 136.757 266.496 164.367 289.136C215.535 331.03 289.373 359.54 372.05 360.733C394.478 361.056 414.968 359.665 436.361 357.337V357.336Z" fill="#009BDD"/>
<path d="M428.73 405.901L428.417 407.897C307.681 417.302 187.088 381.884 112.424 324.028C80.9544 299.644 57.0367 271.27 44.1711 240.669C31.3067 210.071 29.4845 177.231 42.1985 143.912C44.9936 136.586 48.4971 129.237 52.7357 121.884C80.6917 82.0675 129.574 44.0082 204.047 11.3472C125.823 53.5789 82.4224 99.2216 65.3367 143.993C52.6461 177.25 54.4669 210.031 67.3094 240.578C80.1508 271.121 104.004 299.426 135.38 323.739C193.284 368.607 274.536 399.883 356.757 406.024C380.402 407.789 405.139 407.705 428.73 405.901V405.901Z" fill="#FFEE00"/>
<path d="M421.406 452.508C287.539 463.094 164.449 423.988 86.5016 361.942C53.2631 335.484 28.0184 304.796 13.6023 272.089C-0.796349 239.42 -4.35047 204.75 5.77063 170.288C20.085 121.549 61.7608 73.2322 138.803 31.5806C190.143 3.825 232.415 -0.345601 231.471 0.0217931C109.113 47.6087 47.0348 108.634 28.9089 170.35C18.8055 204.75 22.3593 239.369 36.7406 272C51.1052 304.591 76.3186 335.216 109.549 361.668C171.108 410.667 259.31 445.155 355.014 450.191C377.018 451.348 399.332 451.513 421.898 449.375L421.406 452.507V452.508Z" fill="#009632"/>
<path d="M421.406 452.508L439.717 335.983C442.808 334.874 445.772 333.554 448.607 332.021C458.843 326.485 466.885 318.912 472.734 309.303C478.584 299.694 481.508 288.726 481.508 276.402C481.508 264.703 478.271 254.31 471.794 245.223C468.351 240.391 464.434 236.371 460.046 233.163H548.94C565.025 233.163 578.395 236.296 589.049 242.563C599.703 248.83 607.693 257.082 613.02 267.318C618.347 277.554 621.011 288.626 621.011 300.533C621.011 310.56 619.131 320.431 615.37 330.145C611.61 339.858 606.127 348.684 598.919 356.622C591.712 364.561 582.678 370.933 571.815 375.737L584.663 406.759C585.498 408.43 586.701 409.893 588.266 411.145C589.832 412.397 591.661 413.026 593.749 413.026H616.712L610.545 452.508H580.589C569.521 452.508 561.263 450.312 555.834 445.927C550.405 441.542 546.225 435.796 543.3 428.693L525.439 384.198C524.394 384.198 523.298 384.198 522.149 384.198C520.999 384.198 519.903 384.198 518.859 384.198H477.497L466.843 452.508H421.407H421.406ZM483.762 344.715H529.825C540.061 344.715 548.522 342.835 555.207 339.075C561.892 335.315 566.957 330.353 570.404 324.191C573.851 318.028 575.574 311.5 575.574 304.606C575.574 298.757 574.269 293.43 571.657 288.626C569.046 283.821 565.234 279.956 560.22 277.032C555.207 274.107 548.835 272.645 541.106 272.645H495.043L483.762 344.715V344.715ZM281.33 340.325L298.256 232.615C307.583 228.574 315.765 223.187 322.802 216.455C330.009 209.562 335.597 201.676 339.566 192.798C343.535 183.92 345.52 174.675 345.52 165.066C345.52 152.95 342.909 142.505 337.685 133.731C334.78 128.85 331.228 124.6 327.03 120.979H427.978C439.886 120.979 449.86 123.538 457.903 128.656C465.946 133.775 472.056 140.354 476.234 148.398C480.413 156.44 482.501 164.952 482.501 173.936C482.501 181.039 481.092 187.985 478.271 194.773C475.451 201.563 471.117 207.725 465.268 213.261C459.418 218.797 451.897 223.236 442.706 226.578C452.524 229.921 460.671 236.136 467.147 245.223C473.623 254.31 476.861 264.703 476.861 276.402C476.861 288.726 473.937 299.694 468.088 309.303C462.237 318.912 454.195 326.485 443.959 332.021C433.723 337.556 421.815 340.325 408.237 340.325H281.33V340.325ZM332.406 300.843H403.537C408.968 300.843 413.877 299.537 418.264 296.925C422.651 294.314 426.151 290.711 428.761 286.115C431.373 281.519 432.678 276.505 432.678 271.075C432.678 266.897 431.686 263.032 429.702 259.48C427.717 255.929 424.897 253.057 421.241 250.863C417.585 248.669 413.25 247.573 408.237 247.573H340.866L332.405 300.843L332.406 300.843ZM346.507 209.971H411.685C416.698 209.971 421.45 208.769 425.941 206.367C430.433 203.966 434.037 200.727 436.752 196.654C439.468 192.58 440.826 187.932 440.826 182.709C440.826 178.741 439.886 175.085 438.006 171.742C436.125 168.4 433.566 165.685 430.328 163.595C427.09 161.506 423.174 160.462 418.578 160.462H354.341L346.507 209.972L346.507 209.971ZM164.143 239.017L171.037 199.535H261.908C269.219 199.535 275.33 198.281 280.239 195.775C285.148 193.268 288.857 189.821 291.363 185.435C293.87 181.048 295.123 176.035 295.123 170.395C295.123 165.798 294.078 161.881 291.99 158.644C289.9 155.406 286.976 152.898 283.216 151.123C279.455 149.347 274.964 148.459 269.741 148.459H242.48C230.155 148.459 219.396 146.056 210.205 141.252C201.014 136.448 193.859 129.606 188.741 120.728C183.623 111.85 181.064 101.352 181.064 89.2357C181.064 75.4482 184.197 63.3321 190.463 52.8871C196.731 42.4421 205.505 34.2952 216.786 28.446C228.066 22.5964 241.227 19.672 256.267 19.672H351.84L344.946 59.154H255.641C249.792 59.154 244.726 60.198 240.444 62.2874C236.161 64.3769 232.819 67.2484 230.416 70.9049C228.014 74.5603 226.813 78.7906 226.813 83.5951C226.813 88.6086 227.858 92.8393 229.946 96.2857C232.035 99.7325 234.803 102.291 238.251 103.963C241.697 105.634 245.405 106.47 249.374 106.47H278.203C290.737 106.47 301.704 108.821 311.104 113.521C320.505 118.22 327.816 124.958 333.038 133.732C338.261 142.506 340.872 152.951 340.872 165.067C340.872 174.676 338.887 183.92 334.918 192.798C330.95 201.677 325.362 209.562 318.155 216.456C310.947 223.35 302.54 228.834 292.93 232.907C283.32 236.981 272.771 239.017 261.281 239.017H164.143V239.017Z" fill="#96989A"/>
<path d="M1.74814 542.036V534.444H19.8264C20.7101 534.444 21.5141 534.224 22.2372 533.782C22.9602 533.34 23.5427 532.748 23.9845 532.004C24.4268 531.261 24.6475 530.448 24.6475 529.564C24.6475 528.64 24.4268 527.807 23.9845 527.063C23.5427 526.321 22.9602 525.728 22.2372 525.286C21.5141 524.844 20.7101 524.623 19.8264 524.623H12.776C10.4053 524.623 8.25615 524.141 6.32734 523.177C4.39928 522.213 2.86318 520.817 1.71753 518.99C0.572635 517.162 0 514.963 0 512.392C0 509.862 0.542775 507.662 1.62795 505.795C2.71236 503.927 4.17854 502.471 6.02647 501.427C7.8744 500.382 9.92266 499.86 12.1735 499.86H30.4926V507.452H13.0164C12.2128 507.452 11.4701 507.663 10.7871 508.085C10.1041 508.506 9.57152 509.059 9.19014 509.741C8.808 510.424 8.61712 511.187 8.61712 512.031C8.61712 512.875 8.808 513.638 9.19014 514.321C9.57152 515.004 10.1041 515.546 10.7871 515.947C11.4701 516.349 12.2128 516.55 13.0164 516.55H20.3083C22.9198 516.55 25.1899 517.052 27.118 518.056C29.0464 519.061 30.5424 520.467 31.6076 522.274C32.6723 524.081 33.2049 526.19 33.2049 528.6C33.2049 531.452 32.6523 533.882 31.5471 535.891C30.4427 537.899 28.9561 539.425 27.0885 540.469C25.2198 541.514 23.1613 542.036 20.9108 542.036H1.74814ZM51.3414 542.759C48.1671 542.759 45.335 542.046 42.8441 540.62C40.3525 539.194 38.3847 537.266 36.9378 534.836C35.4917 532.406 34.7682 529.685 34.7682 526.672C34.7682 523.66 35.4917 520.939 36.9378 518.508C38.3847 516.078 40.3525 514.15 42.8441 512.724C45.335 511.298 48.1668 510.585 51.3414 510.585C54.5141 510.585 57.3471 511.298 59.8383 512.724C62.3288 514.15 64.2969 516.078 65.7435 518.508C67.19 520.939 67.913 523.66 67.913 526.672C67.913 529.685 67.19 532.406 65.7435 534.836C64.2969 537.266 62.3288 539.194 59.8383 540.62C57.3471 542.046 54.5145 542.759 51.3414 542.759ZM51.3414 535.71C53.0283 535.71 54.4839 535.308 55.7097 534.505C56.9351 533.701 57.8789 532.617 58.5419 531.252C59.2048 529.886 59.5367 528.359 59.5367 526.672C59.5367 524.985 59.2048 523.46 58.5419 522.094C57.8789 520.728 56.9351 519.644 55.7097 518.84C54.4839 518.037 53.0279 517.635 51.3414 517.635C49.653 517.635 48.1974 518.037 46.9724 518.84C45.7466 519.644 44.8028 520.728 44.1394 522.094C43.4764 523.46 43.145 524.986 43.145 526.672C43.145 528.36 43.4764 529.886 44.1394 531.252C44.8028 532.617 45.7466 533.702 46.9724 534.505C48.1974 535.308 49.6533 535.71 51.3414 535.71ZM86.0491 542.036C82.8749 542.036 80.0431 541.353 77.5522 539.987C75.061 538.622 73.0925 536.784 71.6463 534.475C70.1998 532.165 69.4771 529.564 69.4771 526.672C69.4771 523.78 70.1998 521.179 71.6463 518.869C73.0925 516.56 75.061 514.722 77.5522 513.357C80.0431 511.991 82.8745 511.308 86.0491 511.308H89.906V518.357H86.0491C84.3619 518.357 82.9055 518.719 81.6797 519.442C80.4547 520.165 79.5105 521.159 78.8479 522.424C78.1846 523.689 77.8531 525.105 77.8531 526.672C77.8531 528.238 78.1846 529.654 78.8479 530.919C79.5105 532.185 80.4547 533.179 81.6797 533.902C82.9055 534.625 84.3622 534.986 86.0491 534.986H89.906V542.035H86.0491V542.036ZM92.9775 542.036V511.308H101.293V542.036H92.9775ZM97.1352 507.633C95.7284 507.633 94.5136 507.121 93.4889 506.097C92.4645 505.073 91.9524 503.857 91.9524 502.452C91.9524 501.046 92.4645 499.831 93.4889 498.807C94.5139 497.783 95.7288 497.27 97.1352 497.27C98.5413 497.27 99.7569 497.783 100.78 498.807C101.805 499.831 102.317 501.046 102.317 502.452C102.317 503.858 101.805 505.073 100.78 506.097C99.7565 507.121 98.5409 507.633 97.1352 507.633ZM121.9 542.036C118.406 542.036 115.362 541.364 112.771 540.018C110.179 538.672 108.171 536.834 106.745 534.505C105.318 532.175 104.605 529.564 104.605 526.672C104.605 523.419 105.268 520.587 106.594 518.177C107.92 515.766 109.728 513.899 112.018 512.573C114.307 511.248 116.899 510.585 119.792 510.585C123.247 510.585 126.049 511.308 128.198 512.754C130.347 514.2 131.924 516.138 132.928 518.568C133.933 520.999 134.435 523.7 134.435 526.672C134.435 527.074 134.415 527.546 134.375 528.088C134.335 528.63 134.274 529.042 134.194 529.323H113.404C113.725 530.569 114.278 531.613 115.061 532.456C115.845 533.3 116.829 533.932 118.014 534.354C119.199 534.776 120.535 534.987 122.021 534.987H130.579V542.036H121.9H121.9ZM113.342 523.781H126.179C126.098 523.017 125.957 522.304 125.757 521.642C125.556 520.979 125.275 520.386 124.913 519.864C124.551 519.342 124.13 518.9 123.647 518.538C123.165 518.177 122.603 517.896 121.96 517.694C121.317 517.494 120.614 517.393 119.851 517.393C118.847 517.393 117.952 517.575 117.169 517.936C116.386 518.297 115.733 518.779 115.21 519.382C114.688 519.984 114.276 520.667 113.974 521.43C113.673 522.193 113.463 522.977 113.342 523.781H113.342ZM152.029 542.759C149.457 542.759 147.157 542.347 145.128 541.524C143.099 540.701 141.402 539.536 140.037 538.03C138.67 536.523 137.626 534.756 136.903 532.728C136.18 530.699 135.819 528.48 135.819 526.07C135.819 523.018 136.431 520.336 137.656 518.026C138.882 515.717 140.609 513.899 142.839 512.574C145.068 511.248 147.67 510.585 150.643 510.585C151.928 510.585 153.164 510.766 154.349 511.128C155.534 511.489 156.609 512.012 157.573 512.695C158.537 513.377 159.32 514.181 159.923 515.105H159.983V498.054H168.239V526.07C168.239 529.444 167.576 532.386 166.251 534.897C164.925 537.407 163.057 539.345 160.646 540.711C158.236 542.077 155.363 542.759 152.029 542.759ZM152.029 535.71C153.676 535.71 155.082 535.308 156.247 534.505C157.412 533.701 158.306 532.617 158.929 531.252C159.551 529.886 159.862 528.359 159.862 526.672C159.862 524.985 159.551 523.46 158.929 522.094C158.306 520.728 157.412 519.644 156.247 518.84C155.082 518.037 153.676 517.635 152.029 517.635C150.422 517.635 149.026 518.037 147.84 518.84C146.656 519.644 145.751 520.728 145.128 522.094C144.506 523.46 144.195 524.986 144.195 526.672C144.195 528.36 144.506 529.886 145.128 531.252C145.751 532.617 146.656 533.702 147.84 534.505C149.026 535.308 150.422 535.71 152.029 535.71ZM185.231 542.759C182.418 542.759 179.968 542.036 177.878 540.59C175.79 539.144 174.172 537.206 173.027 534.776C171.882 532.346 171.31 529.665 171.31 526.732C171.31 523.72 171.963 520.989 173.269 518.538C174.574 516.088 176.452 514.15 178.903 512.724C181.353 511.298 184.286 510.585 187.701 510.585C191.156 510.585 194.068 511.308 196.439 512.754C198.81 514.2 200.617 516.148 201.863 518.598C203.108 521.049 203.73 523.76 203.73 526.732V542.036H195.475V536.915H195.354C194.752 537.999 193.998 538.983 193.094 539.867C192.19 540.75 191.095 541.453 189.81 541.976C188.524 542.498 186.998 542.759 185.231 542.759V542.759ZM187.581 535.71C189.188 535.71 190.573 535.308 191.739 534.505C192.903 533.701 193.798 532.607 194.421 531.221C195.044 529.835 195.355 528.299 195.355 526.612C195.355 524.925 195.044 523.409 194.421 522.063C193.798 520.718 192.903 519.644 191.739 518.84C190.573 518.037 189.187 517.635 187.581 517.635C185.933 517.635 184.517 518.037 183.333 518.84C182.148 519.644 181.243 520.718 180.62 522.063C179.998 523.409 179.686 524.925 179.686 526.612C179.686 528.299 179.998 529.835 180.62 531.221C181.243 532.607 182.148 533.702 183.333 534.505C184.517 535.308 185.934 535.71 187.581 535.71ZM223.314 542.759C220.742 542.759 218.443 542.347 216.414 541.524C214.384 540.701 212.688 539.536 211.322 538.03C209.956 536.523 208.911 534.756 208.188 532.728C207.465 530.699 207.104 528.48 207.104 526.07C207.104 523.018 207.716 520.336 208.941 518.026C210.167 515.717 211.894 513.899 214.124 512.574C216.354 511.248 218.955 510.585 221.929 510.585C223.214 510.585 224.449 510.766 225.634 511.128C226.819 511.489 227.894 512.012 228.858 512.695C229.822 513.377 230.606 514.181 231.208 515.105H231.268V498.054H239.524V526.07C239.524 529.444 238.862 532.386 237.536 534.897C236.21 537.407 234.342 539.345 231.931 540.711C229.521 542.077 226.648 542.759 223.314 542.759ZM223.314 535.71C224.961 535.71 226.367 535.308 227.532 534.505C228.697 533.701 229.591 532.617 230.214 531.252C230.837 529.886 231.148 528.359 231.148 526.672C231.148 524.985 230.837 523.46 230.214 522.094C229.591 520.728 228.697 519.644 227.532 518.84C226.367 518.037 224.961 517.635 223.314 517.635C221.707 517.635 220.311 518.037 219.126 518.84C217.941 519.644 217.036 520.728 216.414 522.094C215.791 523.46 215.479 524.986 215.479 526.672C215.479 528.36 215.791 529.886 216.414 531.252C217.036 532.617 217.941 533.702 219.126 534.505C220.311 535.308 221.707 535.71 223.314 535.71ZM259.891 542.036C256.396 542.036 253.352 541.364 250.761 540.018C248.169 538.672 246.161 536.834 244.735 534.505C243.308 532.175 242.596 529.564 242.596 526.672C242.596 523.419 243.259 520.587 244.584 518.177C245.91 515.766 247.718 513.899 250.008 512.573C252.298 511.248 254.888 510.585 257.782 510.585C261.237 510.585 264.039 511.308 266.188 512.754C268.337 514.2 269.914 516.138 270.919 518.568C271.924 520.999 272.426 523.7 272.426 526.672C272.426 527.074 272.405 527.546 272.365 528.088C272.325 528.63 272.264 529.042 272.184 529.323H251.394C251.716 530.569 252.268 531.613 253.052 532.456C253.835 533.3 254.819 533.932 256.004 534.354C257.189 534.776 258.525 534.987 260.011 534.987H268.569V542.036H259.891H259.891ZM251.333 523.781H264.169C264.088 523.017 263.948 522.304 263.747 521.642C263.546 520.979 263.265 520.386 262.904 519.864C262.542 519.342 262.12 518.9 261.638 518.538C261.155 518.177 260.593 517.896 259.95 517.694C259.308 517.494 258.605 517.393 257.841 517.393C256.837 517.393 255.943 517.575 255.159 517.936C254.376 518.297 253.723 518.779 253.2 519.382C252.678 519.984 252.266 520.667 251.965 521.43C251.664 522.193 251.453 522.977 251.332 523.781H251.333ZM291.886 542.036V499.861H315.57C317.579 499.861 319.396 500.313 321.024 501.217C322.65 502.121 323.956 503.376 324.941 504.982C325.924 506.589 326.417 508.497 326.417 510.706C326.417 512.112 326.136 513.447 325.573 514.712C325.01 515.978 324.247 517.072 323.283 517.996C322.319 518.92 321.194 519.643 319.908 520.165C321.395 520.647 322.71 521.42 323.856 522.485C325 523.549 325.904 524.795 326.567 526.22C327.23 527.646 327.562 529.183 327.562 530.829C327.562 533.079 327.05 535.047 326.025 536.734C325 538.421 323.645 539.726 321.958 540.65C320.27 541.574 318.382 542.036 316.292 542.036H291.886V542.036ZM300.505 534.444H313.823C314.787 534.444 315.65 534.213 316.414 533.752C317.178 533.29 317.79 532.667 318.252 531.884C318.714 531.1 318.945 530.247 318.945 529.323C318.945 528.359 318.714 527.495 318.252 526.732C317.79 525.969 317.178 525.356 316.414 524.894C315.65 524.433 314.787 524.201 313.823 524.201H300.505V534.444V534.444ZM300.505 516.972H313.039C313.923 516.972 314.726 516.761 315.45 516.34C316.173 515.918 316.746 515.345 317.167 514.622C317.589 513.899 317.8 513.096 317.8 512.212C317.8 511.328 317.589 510.525 317.167 509.802C316.746 509.078 316.173 508.506 315.45 508.085C314.726 507.663 313.923 507.452 313.039 507.452H300.505V516.971V516.972ZM330.934 542.036V520.045C330.934 517.313 331.707 515.175 333.255 513.628C334.801 512.082 336.94 511.308 339.672 511.308H348.169V518.358H341.118C340.596 518.358 340.145 518.539 339.763 518.9C339.381 519.261 339.19 519.723 339.19 520.286V542.036H330.934ZM362.147 542.759C359.335 542.759 356.885 542.036 354.795 540.59C352.707 539.144 351.089 537.206 349.945 534.776C348.799 532.346 348.227 529.665 348.227 526.732C348.227 523.72 348.88 520.989 350.185 518.538C351.491 516.088 353.369 514.15 355.82 512.724C358.271 511.298 361.203 510.585 364.618 510.585C368.073 510.585 370.985 511.308 373.356 512.754C375.726 514.2 377.534 516.148 378.78 518.598C380.025 521.049 380.648 523.76 380.648 526.732V542.036H372.392V536.915H372.271C371.669 537.999 370.915 538.983 370.011 539.867C369.107 540.75 368.012 541.453 366.728 541.976C365.442 542.498 363.915 542.759 362.147 542.759V542.759ZM364.498 535.71C366.105 535.71 367.491 535.308 368.656 534.505C369.821 533.701 370.715 532.607 371.338 531.221C371.96 529.835 372.271 528.299 372.271 526.612C372.271 524.925 371.96 523.409 371.338 522.063C370.715 520.718 369.821 519.644 368.656 518.84C367.491 518.037 366.105 517.635 364.498 517.635C362.851 517.635 361.435 518.037 360.249 518.84C359.064 519.644 358.16 520.718 357.538 522.063C356.915 523.409 356.603 524.925 356.603 526.612C356.603 528.299 356.915 529.835 357.538 531.221C358.16 532.607 359.064 533.702 360.249 534.505C361.435 535.308 362.851 535.71 364.498 535.71ZM385.949 542.036V534.987H400.954C401.436 534.987 401.868 534.887 402.249 534.686C402.631 534.485 402.932 534.204 403.153 533.842C403.374 533.481 403.485 533.079 403.485 532.637C403.485 532.155 403.374 531.733 403.153 531.372C402.932 531.01 402.631 530.719 402.249 530.498C401.868 530.277 401.436 530.167 400.954 530.167H395.169C393.2 530.167 391.423 529.855 389.836 529.233C388.249 528.61 386.982 527.606 386.039 526.22C385.094 524.835 384.622 523.017 384.622 520.768C384.622 519.04 385.055 517.464 385.919 516.038C386.783 514.612 387.947 513.467 389.414 512.604C390.88 511.74 392.497 511.308 394.265 511.308H408.667V518.358H395.047C394.445 518.358 393.913 518.558 393.451 518.96C392.989 519.362 392.758 519.884 392.758 520.527C392.758 521.17 392.979 521.702 393.421 522.124C393.863 522.546 394.405 522.757 395.047 522.757H400.833C403.043 522.757 404.951 523.088 406.558 523.751C408.165 524.413 409.411 525.448 410.294 526.853C411.178 528.259 411.62 530.106 411.62 532.396C411.62 534.164 411.178 535.78 410.294 537.246C409.41 538.713 408.225 539.877 406.738 540.741C405.252 541.604 403.585 542.036 401.737 542.036H385.949ZM415.414 542.036V511.308H423.731V542.036H415.414ZM419.572 507.633C418.166 507.633 416.95 507.121 415.926 506.097C414.902 505.073 414.39 503.857 414.39 502.452C414.39 501.046 414.902 499.831 415.926 498.807C416.951 497.783 418.166 497.27 419.572 497.27C420.978 497.27 422.194 497.783 423.218 498.807C424.242 499.831 424.754 501.046 424.754 502.452C424.754 503.858 424.242 505.073 423.218 506.097C422.194 507.121 420.978 507.633 419.572 507.633ZM428.85 542.036V498.054H437.106V542.036H428.85ZM457.773 542.036C454.278 542.036 451.235 541.364 448.643 540.018C446.052 538.672 444.044 536.834 442.617 534.505C441.191 532.175 440.478 529.564 440.478 526.672C440.478 523.419 441.141 520.587 442.467 518.177C443.793 515.766 445.6 513.899 447.89 512.573C450.181 511.248 452.771 510.585 455.664 510.585C459.119 510.585 461.922 511.308 464.071 512.754C466.22 514.2 467.797 516.138 468.801 518.568C469.806 520.999 470.308 523.7 470.308 526.672C470.308 527.074 470.287 527.546 470.247 528.088C470.208 528.63 470.147 529.042 470.067 529.323H449.276C449.598 530.569 450.151 531.613 450.934 532.456C451.718 533.3 452.702 533.932 453.887 534.354C455.072 534.776 456.407 534.987 457.894 534.987H466.451V542.036H457.773H457.773ZM449.216 523.781H462.052C461.971 523.017 461.831 522.304 461.63 521.642C461.429 520.979 461.148 520.386 460.786 519.864C460.425 519.342 460.002 518.9 459.52 518.538C459.038 518.177 458.475 517.896 457.833 517.694C457.19 517.494 456.487 517.393 455.723 517.393C454.72 517.393 453.825 517.575 453.042 517.936C452.259 518.297 451.606 518.779 451.084 519.382C450.561 519.984 450.149 520.667 449.848 521.43C449.546 522.193 449.335 522.977 449.215 523.781H449.216ZM473.499 542.036V511.308H481.815V542.036H473.499ZM477.658 507.633C476.251 507.633 475.036 507.121 474.011 506.097C472.987 505.073 472.474 503.857 472.474 502.452C472.474 501.046 472.987 499.831 474.011 498.807C475.036 497.783 476.251 497.27 477.658 497.27C479.063 497.27 480.279 497.783 481.302 498.807C482.327 499.831 482.839 501.046 482.839 502.452C482.839 503.858 482.327 505.073 481.302 506.097C480.278 507.121 479.063 507.633 477.658 507.633ZM486.633 542.036V520.045C486.633 517.313 487.407 515.175 488.954 513.628C490.5 512.082 492.64 511.308 495.372 511.308H503.869V518.358H496.818C496.296 518.358 495.844 518.539 495.462 518.9C495.081 519.261 494.889 519.723 494.889 520.286V542.036H486.633ZM517.847 542.759C515.034 542.759 512.584 542.036 510.494 540.59C508.406 539.144 506.789 537.206 505.644 534.776C504.499 532.346 503.926 529.665 503.926 526.732C503.926 523.72 504.579 520.989 505.885 518.538C507.191 516.088 509.068 514.15 511.519 512.724C513.97 511.298 516.903 510.585 520.317 510.585C523.772 510.585 526.685 511.308 529.055 512.754C531.426 514.2 533.234 516.148 534.479 518.598C535.725 521.049 536.347 523.76 536.347 526.732V542.036H528.092V536.915H527.971C527.368 537.999 526.615 538.983 525.71 539.867C524.807 540.75 523.712 541.453 522.427 541.976C521.141 542.498 519.614 542.759 517.847 542.759V542.759ZM520.197 535.71C521.805 535.71 523.19 535.308 524.355 534.505C525.52 533.701 526.414 532.607 527.037 531.221C527.66 529.835 527.971 528.299 527.971 526.612C527.971 524.925 527.66 523.409 527.037 522.063C526.414 520.718 525.52 519.644 524.355 518.84C523.19 518.037 521.804 517.635 520.197 517.635C518.549 517.635 517.134 518.037 515.949 518.84C514.764 519.644 513.859 520.718 513.237 522.063C512.614 523.409 512.303 524.925 512.303 526.612C512.303 528.299 512.614 529.835 513.237 531.221C513.859 532.607 514.764 533.702 515.949 534.505C517.134 535.308 518.55 535.71 520.197 535.71ZM571.899 542.759C569.328 542.759 567.028 542.347 565 541.524C562.97 540.701 561.273 539.536 559.907 538.03C558.541 536.523 557.497 534.756 556.774 532.728C556.05 530.699 555.688 528.48 555.688 526.07C555.688 523.018 556.301 520.336 557.527 518.026C558.753 515.717 560.48 513.899 562.709 512.574C564.939 511.248 567.541 510.585 570.513 510.585C571.799 510.585 573.035 510.766 574.219 511.128C575.404 511.489 576.48 512.012 577.443 512.695C578.407 513.377 579.191 514.181 579.793 515.105H579.854V498.054H588.11V526.07C588.11 529.444 587.447 532.386 586.121 534.897C584.796 537.407 582.927 539.345 580.517 540.711C578.106 542.077 575.234 542.759 571.899 542.759ZM571.899 535.71C573.546 535.71 574.952 535.308 576.118 534.505C577.282 533.701 578.177 532.617 578.8 531.252C579.422 529.886 579.733 528.359 579.733 526.672C579.733 524.985 579.422 523.46 578.8 522.094C578.177 520.728 577.282 519.644 576.118 518.84C574.952 518.037 573.546 517.635 571.899 517.635C570.292 517.635 568.896 518.037 567.711 518.84C566.527 519.644 565.621 520.728 565 522.094C564.377 523.46 564.065 524.986 564.065 526.672C564.065 528.36 564.377 529.886 565 531.252C565.621 532.617 566.527 533.702 567.711 534.505C568.896 535.308 570.292 535.71 571.899 535.71ZM608.476 542.036C604.981 542.036 601.938 541.364 599.346 540.018C596.754 538.672 594.747 536.834 593.32 534.505C591.893 532.175 591.181 529.564 591.181 526.672C591.181 523.419 591.844 520.587 593.169 518.177C594.496 515.766 596.303 513.899 598.593 512.573C600.884 511.248 603.474 510.585 606.367 510.585C609.822 510.585 612.624 511.308 614.773 512.754C616.923 514.2 618.5 516.138 619.504 518.568C620.508 520.999 621.011 523.7 621.011 526.672C621.011 527.074 620.99 527.546 620.95 528.088C620.91 528.63 620.85 529.042 620.77 529.323H599.979C600.301 530.569 600.853 531.613 601.637 532.456C602.421 533.3 603.404 533.932 604.59 534.354C605.775 534.776 607.11 534.987 608.597 534.987H617.154V542.036H608.477H608.476ZM599.919 523.781H612.754C612.674 523.017 612.533 522.304 612.333 521.642C612.132 520.979 611.851 520.386 611.488 519.864C611.127 519.342 610.705 518.9 610.223 518.538C609.741 518.177 609.178 517.896 608.536 517.694C607.893 517.494 607.19 517.393 606.427 517.393C605.422 517.393 604.528 517.575 603.744 517.936C602.961 518.297 602.308 518.779 601.786 519.382C601.263 519.984 600.852 520.667 600.551 521.43C600.249 522.193 600.038 522.977 599.918 523.781H599.919ZM577.198 665.919C581.557 665.919 585.317 664.829 588.477 662.65C591.638 660.47 594.063 657.5 595.752 653.74C597.442 649.98 598.286 645.812 598.286 641.234C598.286 636.657 597.442 632.542 595.752 628.891C594.063 625.241 591.638 622.325 588.477 620.145C585.317 617.965 581.557 616.876 577.198 616.876C572.729 616.876 568.887 617.966 565.672 620.145C562.457 622.325 560.005 625.24 558.315 628.891C556.626 632.542 555.781 636.657 555.781 641.234C555.781 645.812 556.626 649.98 558.315 653.74C560.005 657.5 562.457 660.47 565.672 662.65C568.887 664.83 572.729 665.919 577.198 665.919ZM570.821 685.046C563.192 685.046 556.544 683.084 550.877 679.161C545.21 675.237 540.823 669.979 537.717 663.385C534.611 656.792 533.058 649.517 533.058 641.561C533.058 633.387 534.829 625.976 538.371 619.328C541.913 612.68 547.008 607.421 553.656 603.552C560.304 599.683 568.261 597.749 577.524 597.749C586.897 597.749 594.798 599.711 601.229 603.634C607.659 607.558 612.563 612.843 615.941 619.492C619.32 626.14 621.01 633.496 621.01 641.561V683.085H598.613V669.189H598.286C596.651 672.132 594.608 674.802 592.155 677.2C589.703 679.598 586.733 681.504 583.246 682.921C579.758 684.338 575.616 685.047 570.821 685.047L570.821 685.046ZM519.169 683.084C510.559 683.084 502.876 681.232 496.118 677.527C489.361 673.821 484.021 668.835 480.098 662.568C476.174 656.301 474.212 649.244 474.212 641.398C474.212 633.55 476.174 626.494 480.098 620.227C484.021 613.96 489.361 608.974 496.118 605.269C502.876 601.563 510.559 599.711 519.169 599.711H529.632V618.838H519.169C514.592 618.838 510.641 619.819 507.317 621.78C503.993 623.742 501.432 626.439 499.633 629.873C497.835 633.305 496.936 637.148 496.936 641.398C496.936 645.648 497.835 649.491 499.633 652.923C501.432 656.356 503.993 659.054 507.317 661.016C510.641 662.977 514.592 663.958 519.169 663.958H529.632V683.085H519.169V683.084ZM453.948 589.738C450.133 589.738 446.836 588.348 444.057 585.569C441.278 582.79 439.889 579.493 439.889 575.679C439.889 571.865 441.278 568.567 444.057 565.789C446.837 563.009 450.133 561.619 453.948 561.619C457.762 561.619 461.059 563.009 463.838 565.789C466.618 568.568 468.007 571.865 468.007 575.679C468.007 579.493 466.617 582.79 463.838 585.569C461.059 588.349 457.762 589.738 453.948 589.738ZM442.668 683.084V599.71H465.228V683.084H442.668ZM372.706 618.837V599.71H386.928V578.785H409.325V599.71H432.702V618.837H409.325V658.726C409.325 660.143 409.843 661.369 410.878 662.404C411.913 663.44 413.14 663.957 414.556 663.957H432.702V683.084H410.632C403.222 683.084 397.418 680.959 393.222 676.709C389.027 672.458 386.928 666.682 386.928 659.38V618.837H372.706ZM320.072 588.757L333.804 568.649H354.893L341.161 588.757H320.072ZM330.862 665.919C335.439 665.919 339.39 664.829 342.714 662.65C346.038 660.47 348.599 657.527 350.398 653.822C352.196 650.117 353.095 645.975 353.095 641.398C353.095 636.82 352.196 632.678 350.398 628.973C348.599 625.268 346.038 622.325 342.714 620.145C339.39 617.966 335.439 616.876 330.862 616.876C326.285 616.876 322.333 617.966 319.01 620.145C315.686 622.325 313.124 625.268 311.326 628.973C309.527 632.678 308.629 636.82 308.629 641.398C308.629 645.975 309.527 650.117 311.326 653.822C313.124 657.527 315.685 660.47 319.01 662.65C322.333 664.83 326.285 665.919 330.862 665.919ZM330.862 685.046C322.252 685.046 314.568 683.112 307.811 679.243C301.054 675.374 295.714 670.143 291.79 663.549C287.867 656.956 285.905 649.571 285.905 641.398C285.905 633.223 287.867 625.84 291.79 619.246C295.714 612.652 301.054 607.421 307.811 603.552C314.568 599.683 322.252 597.749 330.862 597.749C339.472 597.749 347.155 599.683 353.912 603.552C360.67 607.421 366.01 612.652 369.933 619.246C373.857 625.84 375.819 633.224 375.819 641.398C375.819 649.572 373.857 656.956 369.933 663.549C366.01 670.143 360.67 675.374 353.912 679.243C347.155 683.112 339.472 685.046 330.862 685.046ZM237.686 665.919C242.154 665.919 245.969 664.829 249.129 662.65C252.289 660.47 254.715 657.527 256.404 653.822C258.093 650.117 258.938 645.975 258.938 641.398C258.938 636.82 258.093 632.678 256.404 628.973C254.715 625.268 252.29 622.325 249.129 620.145C245.969 617.966 242.154 616.876 237.686 616.876C233.326 616.876 229.539 617.966 226.324 620.145C223.109 622.325 220.656 625.268 218.967 628.973C217.278 632.678 216.433 636.82 216.433 641.398C216.433 645.975 217.278 650.117 218.967 653.822C220.656 657.527 223.108 660.47 226.324 662.65C229.539 664.83 233.326 665.919 237.686 665.919ZM237.686 685.046C228.749 685.046 220.984 683.194 214.389 679.488C207.796 675.783 202.701 670.524 199.104 663.712C195.508 656.901 193.71 648.917 193.71 639.762V563.745H216.107V610.009H216.269C218.014 607.503 220.166 605.323 222.727 603.47C225.289 601.617 228.177 600.201 231.392 599.22C234.607 598.239 237.958 597.748 241.446 597.748C249.62 597.748 256.704 599.547 262.698 603.143C268.692 606.739 273.351 611.672 276.675 617.938C280 624.205 281.662 631.48 281.662 639.762C281.662 646.301 280.681 652.323 278.719 657.827C276.757 663.33 273.924 668.126 270.218 672.213C266.513 676.3 261.935 679.461 256.486 681.695C251.037 683.929 244.77 685.046 237.686 685.046V685.046ZM140.422 665.919C145 665.919 148.95 664.829 152.275 662.65C155.598 660.47 158.16 657.527 159.958 653.822C161.756 650.117 162.656 645.975 162.656 641.398C162.656 636.82 161.756 632.678 159.958 628.973C158.16 625.268 155.599 622.325 152.275 620.145C148.95 617.966 145 616.876 140.422 616.876C135.845 616.876 131.894 617.966 128.57 620.145C125.246 622.325 122.685 625.268 120.886 628.973C119.088 632.678 118.189 636.82 118.189 641.398C118.189 645.975 119.088 650.117 120.886 653.822C122.685 657.527 125.246 660.47 128.57 662.65C131.894 664.83 135.845 665.919 140.422 665.919ZM140.422 685.046C131.812 685.046 124.129 683.112 117.371 679.243C110.614 675.374 105.274 670.143 101.351 663.549C97.4274 656.956 95.4653 649.571 95.4653 641.398C95.4653 633.223 97.4274 625.84 101.351 619.246C105.274 612.652 110.614 607.421 117.371 603.552C124.129 599.683 131.812 597.749 140.422 597.749C149.032 597.749 156.715 599.683 163.472 603.552C170.23 607.421 175.57 612.652 179.494 619.246C183.417 625.84 185.379 633.224 185.379 641.398C185.379 649.572 183.417 656.956 179.494 663.549C175.57 670.143 170.23 675.374 163.472 679.243C156.715 683.112 149.032 685.046 140.422 685.046ZM23.3775 626.848H48.3901C52.0955 626.848 55.4742 626.112 58.526 624.641C61.5774 623.169 64.0025 621.017 65.8009 618.183C67.5989 615.349 68.4982 611.971 68.4982 608.048C68.4982 604.124 67.5717 600.745 65.7189 597.912C63.866 595.078 61.4413 592.926 58.444 591.454C55.447 589.983 52.0955 589.247 48.3901 589.247H23.3775V626.848ZM0 683.084V568.649H51.169C58.6896 568.649 65.528 570.311 71.686 573.635C77.8436 576.959 82.7479 581.564 86.3988 587.449C90.0493 593.334 91.8749 600.201 91.8749 608.048C91.8749 615.677 90.0765 622.407 86.4804 628.237C82.884 634.068 78.1426 638.673 72.2571 642.052L82.7203 660.361C83.1561 661.015 83.7012 661.533 84.3551 661.914C85.009 662.296 85.7717 662.487 86.6437 662.487H97.7604V683.085H83.0476C78.4699 683.085 74.3012 681.94 70.5411 679.652C66.7814 677.363 63.8112 674.366 61.6318 670.661L48.7171 647.446C47.7362 647.446 46.7278 647.446 45.6929 647.446C44.6572 647.446 43.6488 647.446 42.6683 647.446H23.3775V683.085H0L0 683.084Z" fill="#96989A"/>
</g>
<defs>
<clipPath id="clip0_5633_130">
<rect width="621.01" height="685.047" fill="white"/>
</clipPath>
</defs>
</svg>
